<?xml version="1.0" encoding="utf-8"?>
<!-- Generator: Adobe Illustrator 15.0.2, SVG Export Plug-In . SVG Version: 6.00 Build 0)  -->
<!DOCTYPE svg PUBLIC "-//W3C//DTD SVG 1.1//EN" "http://www.w3.org/Graphics/SVG/1.1/DTD/svg11.dtd">
<svg version="1.1" id="Layer_1" xmlns="http://www.w3.org/2000/svg" xmlns:xlink="http://www.w3.org/1999/xlink" x="0px" y="0px"
	 width="800px" height="600px" viewBox="0 0 800 600" enable-background="new 0 0 800 600" xml:space="preserve">
<linearGradient id="SVGID_1_" gradientUnits="userSpaceOnUse" x1="238.7871" y1="300.8994" x2="330.0195" y2="300.8994" gradientTransform="matrix(1 0 0 -1 0 601)">
	<stop  offset="0" style="stop-color:#E3A4C9"/>
	<stop  offset="1" style="stop-color:#E3A4C9;stop-opacity:0.41"/>
</linearGradient>
<path fill="url(#SVGID_1_)" d="M238.787,184.411l91.232,237.423l-33.523-243.467C296.496,178.367,271.762,218.485,238.787,184.411z"
	/>
<linearGradient id="SVGID_2_" gradientUnits="userSpaceOnUse" x1="296.4961" y1="300.8994" x2="346.5078" y2="300.8994" gradientTransform="matrix(1 0 0 -1 0 601)">
	<stop  offset="0" style="stop-color:#8B7EBB;stop-opacity:0.41"/>
	<stop  offset="1" style="stop-color:#8B7EBB"/>
</linearGradient>
<path fill="url(#SVGID_2_)" d="M296.496,178.367c0,0,24.729,31.325,50.012,6.044L330.02,421.834L296.496,178.367z"/>
<linearGradient id="SVGID_3_" gradientUnits="userSpaceOnUse" x1="475.3857" y1="300.8994" x2="566.6191" y2="300.8994" gradientTransform="matrix(1 0 0 -1 0 601)">
	<stop  offset="0" style="stop-color:#E3A4C9;stop-opacity:0.41"/>
	<stop  offset="1" style="stop-color:#E3A4C9"/>
</linearGradient>
<path fill="url(#SVGID_3_)" d="M566.619,184.409l-91.233,237.427l33.524-243.471C508.91,178.365,533.645,218.483,566.619,184.409z"
	/>
<linearGradient id="SVGID_4_" gradientUnits="userSpaceOnUse" x1="458.8984" y1="300.9004" x2="508.9102" y2="300.9004" gradientTransform="matrix(1 0 0 -1 0 601)">
	<stop  offset="0" style="stop-color:#8B7EBB"/>
	<stop  offset="1" style="stop-color:#8B7EBB;stop-opacity:0.41"/>
</linearGradient>
<path fill="url(#SVGID_4_)" d="M508.91,178.365c0,0-24.73,31.325-50.012,6.043l16.486,237.427L508.91,178.365z"/>
<linearGradient id="SVGID_5_" gradientUnits="userSpaceOnUse" x1="330.0195" y1="222.3076" x2="402.5664" y2="222.3076" gradientTransform="matrix(1 0 0 -1 0 601)">
	<stop  offset="0" style="stop-color:#8B7EBB"/>
	<stop  offset="1" style="stop-color:#8B7EBB;stop-opacity:0.41"/>
</linearGradient>
<polygon fill="url(#SVGID_5_)" points="402.566,352.589 330.02,421.834 402.566,335.551 "/>
<linearGradient id="SVGID_6_" gradientUnits="userSpaceOnUse" x1="330.0195" y1="234.9482" x2="402.5664" y2="234.9482" gradientTransform="matrix(1 0 0 -1 0 601)">
	<stop  offset="0" style="stop-color:#E3A4C9"/>
	<stop  offset="1" style="stop-color:#E3A4C9;stop-opacity:0.41"/>
</linearGradient>
<polygon fill="url(#SVGID_6_)" points="402.566,310.27 402.566,335.551 330.02,421.834 "/>
<linearGradient id="SVGID_7_" gradientUnits="userSpaceOnUse" x1="402.5664" y1="222.3076" x2="475.1133" y2="222.3076" gradientTransform="matrix(1 0 0 -1 0 601)">
	<stop  offset="0" style="stop-color:#8B7EBB;stop-opacity:0.41"/>
	<stop  offset="1" style="stop-color:#8B7EBB"/>
</linearGradient>
<polygon fill="url(#SVGID_7_)" points="402.566,352.589 475.113,421.834 402.566,335.551 "/>
<linearGradient id="XMLID_3_" gradientUnits="userSpaceOnUse" x1="402.5664" y1="234.9482" x2="475.1133" y2="234.9482" gradientTransform="matrix(1 0 0 -1 0 601)">
	<stop  offset="0" style="stop-color:#E3A4C9;stop-opacity:0.41"/>
	<stop  offset="1" style="stop-color:#E3A4C9"/>
</linearGradient>
<polygon id="XMLID_1_" fill="url(#XMLID_3_)" points="402.566,310.27 402.566,335.551 475.113,421.834 "/>
<path fill="none" stroke="#000000" stroke-linejoin="round" stroke-miterlimit="10" d="M334.103,363.031"/>
<g>
	<path fill="none" stroke="#000000" stroke-miterlimit="10" d="M385.481,317.624c0,0,1.562-6.12,0-9.62c0,0,1.436-2.253,0.694-5.363
		c0,0,3.142-2.055,4.691-5.096"/>
	<path fill="none" stroke="#000000" stroke-miterlimit="10" d="M362.599,332.368c0,0,3.182-12.195,0-28.03
		c0,0,5.069-8.368,3.694-16.851c0,0,8.021-4.501,8.073-14.242"/>
	<g>
		<g>
			<path fill="none" stroke="#000000" stroke-linejoin="round" stroke-miterlimit="10" d="M342.306,244.919
				c11.897,50.512,60.262,65.351,60.262,65.351s-47.265-41.22-56.06-125.858c-21.911,27.407-50.012-6.044-50.012-6.044
				c-29.922,39.863-57.709,6.044-57.709,6.044l91.232,237.423l72.548-67.674l72.547,67.674l91.506-237.425
				c0,0-28.717,33.318-57.709-6.043c0,0-24.577,31.842-50.285,6.49"/>
			<path fill="none" stroke="#000000" stroke-linejoin="round" stroke-miterlimit="10" d="M337.767,310.27c0,0,19.186-10.167,64.8,0
				c0,0-41.85,12.642-68.463,52.762"/>
		</g>
		<path fill="none" stroke="#000000" stroke-miterlimit="10" d="M350.742,342.833c0,0,4.824-18.335,0-37.082
			c0,0,6.828-12.86,6.752-28.304c0,0,8.174-6.247,8.799-19.845"/>
		<path fill="none" stroke="#000000" stroke-miterlimit="10" d="M358.518,238.479c0,0-0.719,17.808-9.39,25.435
			c0,0-0.696,23.499-6.822,46.355c0,0,4.12,16.657-1.384,43.445"/>
	</g>
</g>
<g>
	<path fill="none" stroke="#000000" stroke-miterlimit="10" d="M419.652,318.068c0,0-1.563-6.119,0-9.62
		c0,0-1.437-2.253-0.695-5.363c0,0-3.141-2.056-4.691-5.096"/>
	<path fill="none" stroke="#000000" stroke-miterlimit="10" d="M442.534,332.812c0,0-3.182-12.195,0-28.029
		c0,0-5.069-8.368-3.694-16.851c0,0-8.021-4.501-8.073-14.242"/>
	<g>
		<g>
			<path fill="none" stroke="#000000" stroke-linejoin="round" stroke-miterlimit="10" d="M458.625,184.855
				c-8.795,84.639-56.059,125.859-56.059,125.859s48.362-14.839,60.261-65.351"/>
			<path fill="none" stroke="#000000" stroke-linejoin="round" stroke-miterlimit="10" d="M467.365,310.714
				c0,0-19.185-10.168-64.799,0c0,0,41.849,12.642,68.463,52.763"/>
		</g>
		<path fill="none" stroke="#000000" stroke-miterlimit="10" d="M454.391,343.277c0,0-4.823-18.334,0-37.082
			c0,0-6.828-12.86-6.752-28.304c0,0-8.174-6.247-8.799-19.845"/>
		<path fill="none" stroke="#000000" stroke-miterlimit="10" d="M446.615,238.924c0,0,0.719,17.808,9.391,25.435
			c0,0,0.695,23.499,6.821,46.355c0,0-4.12,16.658,1.384,43.445"/>
	</g>
</g>
<linearGradient id="SVGID_8_" gradientUnits="userSpaceOnUse" x1="296.4961" y1="299.1421" x2="329.2832" y2="299.1421">
	<stop  offset="0" style="stop-color:#8B7EBB;stop-opacity:0.41"/>
	<stop  offset="1" style="stop-color:#8B7EBB"/>
</linearGradient>
<line fill="url(#SVGID_8_)" stroke="#F6DFFF" stroke-miterlimit="10" x1="296.496" y1="178.367" x2="329.283" y2="419.917"/>
<polyline fill="none" stroke="#F6DFFF" stroke-miterlimit="10" points="330.02,421.834 402.566,335.551 402.566,310.714 
	402.566,335.551 475.114,421.834 "/>
<line fill="none" stroke="#F6DFFF" stroke-miterlimit="10" x1="508.911" y1="178.366" x2="475.113" y2="419.917"/>
</svg>
