<?xml version="1.0" encoding="utf-8"?>
<!-- Generator: Adobe Illustrator 21.0.0, SVG Export Plug-In . SVG Version: 6.00 Build 0)  -->
<svg version="1.1" id="electronic" xmlns="http://www.w3.org/2000/svg" xmlns:xlink="http://www.w3.org/1999/xlink" x="0px" y="0px"
	 viewBox="0 0 595.3 841.9" style="enable-background:new 0 0 595.3 841.9;" xml:space="preserve">
<style type="text/css">
	.st0{fill:url(#SVGID_1_);}
	.st1{fill:url(#SVGID_2_);}
	.st2{fill:#F07D2E;}
	.st3{fill:#0093D0;}
	.st4{fill:#EF4E74;}
	.st5{fill:#DDDFD9;}
	.st6{fill:#05A8AA;}
	.st7{fill:url(#SVGID_3_);}
	.st8{fill:url(#SVGID_4_);}
	.st9{fill:url(#SVGID_5_);}
	.st10{fill:url(#SVGID_6_);}
	.st11{fill:url(#SVGID_7_);}
	.st12{fill:url(#SVGID_8_);}
	.st13{fill:url(#SVGID_9_);}
	.st14{fill:url(#SVGID_10_);}
	.st15{fill:url(#SVGID_11_);}
	.st16{fill:url(#SVGID_12_);}
	.st17{fill:url(#SVGID_13_);}
	.st18{fill:url(#SVGID_14_);}
	.st19{fill:url(#SVGID_15_);}
	.st20{fill:url(#SVGID_16_);}
	.st21{fill:#F8B1B8;}
	.st22{fill:#F9B7B9;}
	.st23{fill:none;}
	.st24{opacity:0.8;fill:url(#SVGID_17_);}
	.st25{fill:url(#SVGID_18_);}
	.st26{fill:url(#SVGID_19_);}
	.st27{opacity:0.2;}
	.st28{fill:#6E6F72;}
	.st29{fill:url(#SVGID_20_);}
	.st30{fill:url(#SVGID_21_);}
	.st31{fill:#D2D3D4;}
	.st32{fill:#595A5C;}
	.st33{fill:#3CB8BA;}
	.st34{fill:#BD2171;}
	.st35{fill:#CA4F8E;}
	.st36{opacity:0.2;fill:url(#SVGID_22_);}
	.st37{fill:#F68936;}
	.st38{fill:#F9A15E;}
	.st39{opacity:0.8;fill:url(#SVGID_23_);}
	.st40{fill:url(#SVGID_24_);}
	.st41{fill:url(#SVGID_25_);}
	.st42{fill:url(#SVGID_26_);}
	.st43{fill:url(#SVGID_27_);}
	.st44{opacity:0.8;fill:url(#SVGID_28_);}
	.st45{fill:url(#SVGID_29_);}
	.st46{fill:url(#SVGID_30_);}
	.st47{fill:url(#SVGID_31_);}
	.st48{fill:url(#SVGID_32_);}
	.st49{fill:#ED1164;}
	.st50{font-family:'Optima-Bold';}
	.st51{font-size:30px;}
	.st52{font-family:'Optima-Regular';}
	.st53{font-size:18px;}
	.st54{font-size:22px;}
	.st55{font-family:'Optima-BoldItalic';}
	.st56{font-size:24px;}
	.st57{font-size:17px;}
</style>
<radialGradient id="SVGID_1_" cx="212.7934" cy="176.4018" r="603.2179" gradientTransform="matrix(0.764 0 0 1.0607 156.3855 -2.163726e-05)" gradientUnits="userSpaceOnUse">
	<stop  offset="0" style="stop-color:#FFFFFF"/>
	<stop  offset="0.2428" style="stop-color:#F9F9F9"/>
	<stop  offset="0.4432" style="stop-color:#EEEDED"/>
	<stop  offset="0.6285" style="stop-color:#DDDDDD"/>
	<stop  offset="0.8046" style="stop-color:#C7C7C9"/>
	<stop  offset="0.9729" style="stop-color:#ADAEB1"/>
	<stop  offset="1" style="stop-color:#A8AAAD"/>
</radialGradient>
<rect x="-7" y="0" class="st0" width="611.2" height="848.6"/>
<radialGradient id="SVGID_2_" cx="322.9697" cy="125.8062" r="256.9459" gradientTransform="matrix(1 0 0 1.1023 0 2.0159)" gradientUnits="userSpaceOnUse">
	<stop  offset="0" style="stop-color:#FFFFFF"/>
	<stop  offset="0.1747" style="stop-color:#F9F9F9"/>
	<stop  offset="0.3189" style="stop-color:#EEEDED"/>
	<stop  offset="0.4523" style="stop-color:#DDDDDD"/>
	<stop  offset="0.5791" style="stop-color:#C7C7C9"/>
	<stop  offset="0.7002" style="stop-color:#ADAEB1"/>
	<stop  offset="0.7197" style="stop-color:#A8AAAD"/>
</radialGradient>
<path class="st1" d="M641.6,128.7c-25-26-65.5-29.9-87.5-29.9c-5,0-9.3,0.2-12.6,0.4c1.9-11.3,1.2-37.9-36.4-64.4
	c-17-12-38.1-18-62.7-18c-22.7,0-42.1,5.2-50.6,7.9c-7.4-11.3-35.5-44.4-108.7-44.4c-2.1,0-4.2,0-6.4,0.1
	c-88.5,2.2-108.2,57.3-112,73.2c-7-1.1-13.8-1.6-20.1-1.6c-45.1,0-60.1,27.2-64.1,37.2c-2.6-0.3-5.2-0.4-7.8-0.4
	c-26,0-52,13-67.9,34c-18.8,24.7-19.7,54.1-2.5,78.4c23.5,33.3,64.2,40.2,94.3,40.2c15.7,0,28.8-1.9,35.9-3.2
	c2.5,11.4,13.8,40,63.2,46.8c5.5,0.8,11.1,1.1,16.5,1.1c36.9,0,61.4-17.1,72.4-26.9c5.7,12,25.2,33.1,90.9,40.6
	c7.4,0.8,14.6,1.3,21.6,1.3c63.7,0,91.5-35.8,98.7-47c10.4,2.5,20.3,3.7,29.5,3.7c35.4,0,52.1-17.6,56.9-23.9
	c25.1-0.5,49.1-14.1,63-35.8C660.7,173.8,659.4,147.2,641.6,128.7z M572.2,227.6c0,0-21.3,35.4-83.8,18.8c0,0-27,55.3-113.7,45.4
	c-86.7-10-86.7-44.3-86.7-44.3s-31.2,37.6-88.1,29.9c-56.8-7.7-58.3-46.5-58.3-46.5s-88.1,21-126.4-33.2
	C-20.2,147.6,33.7,85.9,90.5,94.7c0,0,11.4-47.6,82.4-34.3c0,0,8.1-69.5,105.1-72c88.1-2.2,109.4,44.3,109.4,44.3
	s63.9-24.4,109.4,7.8c45.5,32.1,32.7,64.2,32.7,64.2s65.4-8.9,99.5,26.6C663.1,166.7,624.8,228.7,572.2,227.6z"/>
<g>
	<g>
		<g>
			<polygon class="st2" points="226.8,702.6 201,706 199.9,705.6 225.5,701.7 			"/>
			<path class="st2" d="M202.6,690l2.2-9.4l24.2,12.5l-2.2,9.4L202.6,690z M225.8,700.9l1.8-7.5l-21.9-11.4l-2,7.3L225.8,700.9z"/>
			<polygon class="st2" points="202,690.3 183.1,697.7 183,697.3 			"/>
			<polygon class="st2" points="204.6,681.8 182,694 182.4,691.7 204.8,680.6 			"/>
			<polygon class="st2" points="202.6,705.6 201.2,707 182.9,697 183.3,691.3 181.3,692 180.8,698.1 201.5,709.7 			"/>
			<polygon class="st2" points="182.8,691.5 179.2,689.9 163.5,696.7 162.3,700.3 158.1,701.4 155.6,703 150.8,704.2 150.6,707.5 
				157.3,706 159,703 163.8,700.9 164.2,697.4 178.8,690.9 			"/>
			<polygon class="st2" points="201.5,709.7 180.6,713.5 177.2,713.6 168.6,715.8 164.9,714.9 152.7,717.1 151.9,714.6 163.7,712.9 
				168.9,714.6 176,712.2 180.7,712.8 			"/>
			<polygon class="st2" points="209.1,701.8 215.3,701 210.6,698.7 204.3,700 			"/>
			<polygon class="st2" points="201.4,698.3 207.5,697.5 202.9,695.2 196.6,696.5 			"/>
			<polygon class="st2" points="179.9,698.2 166.2,701.6 159.6,706.2 165,701.1 			"/>
			<polygon class="st2" points="226.9,693.7 217.1,694.6 225.2,692.8 			"/>
			<polygon class="st2" points="177.7,698.3 178.9,691.1 180.8,691.7 180.1,698 			"/>
			<polygon class="st2" points="160.8,706.1 167.8,711.4 175.4,709.7 165.9,703.1 			"/>
		</g>
		<g>
			<path class="st2" d="M283.9,562.9c-23.9-53-231.7,29.6-234.8,82.2c-2.7,44.9,46.9,77.7,105.9,70.2l-3.7-10.2
				c-51.3,7.1-96-14.6-96.9-59.7c-1.1-57.9,219-132.1,233.7-67.5C288.1,577.7,287.6,571.1,283.9,562.9z"/>
		</g>
	</g>
	<g>
		<g>
			<polygon class="st3" points="271.6,700.6 236.3,712.9 235.3,714 270.5,702.3 			"/>
			<path class="st3" d="M250.3,728.4l7.8,9.2l21.3-27.8l-7.8-9.2L250.3,728.4z M271.3,703l6.2,7.3l-19.1,25.2l-6.4-7L271.3,703z"/>
			<polygon class="st3" points="249.5,728.4 220.5,734.9 220.7,735.4 			"/>
			<polygon class="st3" points="257.3,736.5 221.4,739.7 223,742.1 258.2,737.6 			"/>
			<polygon class="st3" points="238.5,712.5 236.1,711.7 220.7,735.9 223.8,742.1 220.9,743 217.7,735.8 234.9,708.6 			"/>
			<polygon class="st3" points="223.7,742 220.3,745.8 201.1,743.4 195.2,739.3 188.4,740.3 171.7,739.9 170.4,735.8 188.5,735.4 
				199.2,738.5 201.5,742.2 219.3,745 			"/>
			<polygon class="st3" points="234.9,708.6 211.6,714.9 203.2,718.7 176.2,723.8 171.7,734.5 180,733.5 185.2,723.7 200.3,721.7 
				202.4,723.6 212.3,715.6 			"/>
			<polygon class="st3" points="251.4,711.6 259,708.9 254.8,714.1 246.8,716.3 			"/>
			<polygon class="st3" points="244.3,719.9 252,717.3 247.8,722.5 239.8,724.7 			"/>
			<polygon class="st3" points="216.6,736.2 201.6,736.4 189.1,734.4 200.5,737.7 			"/>
			<polygon class="st3" points="276.6,710.4 264.7,715 275.1,712.3 			"/>
			<polygon class="st3" points="186.2,725.7 182.5,732.6 194.8,731.3 198.8,723.6 			"/>
			<polygon class="st3" points="213.5,716.5 202.1,731.1 205.1,730.9 215.7,716.3 			"/>
			<polygon class="st3" points="219.4,715.7 208,730.3 211.1,730.1 221.7,715.5 			"/>
		</g>
		<g>
			<path class="st3" d="M284.8,562.1C264,500.7,44,586.7,40.4,649.5c-3.4,58.6,57.5,93.1,130.9,88.3l5.5-12.7
				c-71.1,8.5-130.1-23.1-130.6-74.8c-0.7-66.2,235.2-151.9,242.4-65.9C288.6,584.3,288.7,573.9,284.8,562.1z"/>
		</g>
	</g>
	<g>
		<g>
			<polygon class="st4" points="247,802.7 244.7,806.6 239.7,803.4 242.4,799.5 			"/>
			<path class="st4" d="M248.5,799.1l-3.3-2.4c-0.4-0.3-0.9-0.1-1.1,0.3L244,797c-0.2,0.3-0.1,0.7,0.2,0.9l3.3,2.4
				c0.3,0.2,0.8,0.2,1-0.2l0,0C248.9,799.8,248.8,799.3,248.5,799.1z"/>
			<path class="st4" d="M247.5,802.3l-1.5,1.9l8.7,5.4c0,0,0.1,1.3,0.9,2.1c1.1,1.1,2.8,0.8,3.2-0.1c0,0-2,0.8-3-1
				c-0.6-1,0.2-2.3,0.2-2.3L247.5,802.3z"/>
			<path class="st4" d="M248.3,802l8.2,5.6c0,0,0,0,0,0c0,0,3.8,0.7,2.9,2.6c0,0,0.6-1.9-3-2.3c0,0,0,0,0,0L248.3,802z"/>
			<path class="st4" d="M244.4,795.8l-5.6,8.1l-13.1-9.2l-2-4.7l0.6-1l3.9,2.9l11.2,7.5l3.2-4.8c0.2-0.4,0.7-0.4,1.1-0.2l0.4,0.3
				C244.6,795,244.7,795.4,244.4,795.8z"/>
			<path class="st4" d="M226.6,785.4c-0.3,0-0.5,0-0.7,0.2l-0.4,0.4c-0.3,0.3-0.3,0.7,0,1l2.3,2.4l3.2-3.3L226.6,785.4z"/>
			<polygon class="st4" points="231.8,786.7 242.6,793.7 242.1,794.4 231.2,787 			"/>
			<path class="st4" d="M223.8,788.6l-0.5,0.7c-0.2,0.3-0.7,0.4-1,0.2l-0.1,0c-0.3-0.2-0.4-0.7-0.2-1.1l0.5-0.7
				c0.3-0.4,0.8-0.4,1.1-0.1l0.1,0.1C224,787.9,224,788.3,223.8,788.6z"/>
			<path class="st4" d="M221.9,787.2l-0.5,0.7c-0.2,0.3-0.7,0.4-1,0.2l-0.1,0c-0.3-0.2-0.4-0.7-0.2-1.1l0.5-0.7
				c0.3-0.4,0.8-0.4,1.1-0.1l0.1,0.1C222.1,786.5,222.1,786.9,221.9,787.2z"/>
			<path class="st4" d="M220,785.9l-0.5,0.7c-0.2,0.3-0.7,0.4-1,0.2l-0.1,0c-0.3-0.2-0.4-0.7-0.2-1.1l0.5-0.7
				c0.3-0.3,0.8-0.4,1.1-0.1l0.1,0C220.2,785.1,220.3,785.6,220,785.9z"/>
			<path class="st4" d="M225,786l0.3-0.4c0.3-0.3,0.2-0.8,0-1l-0.1-0.1c-0.3-0.3-0.8-0.3-1.1,0.1l-0.3,0.4c-0.3,0.4-0.2,0.9,0.2,1.1
				l0.1,0C224.4,786.3,224.8,786.2,225,786z"/>
			<path class="st4" d="M223.2,784.7l0.5-0.5c0.3-0.3,0.3-0.8,0-1.1l0,0c-0.3-0.3-0.8-0.3-1.1,0l-0.5,0.5c-0.3,0.3-0.3,0.8,0.1,1.1
				l0,0C222.4,785.1,222.9,785,223.2,784.7z"/>
			<path class="st4" d="M221.5,783.4l0.5-0.5c0.3-0.3,0.3-0.8,0-1l-0.1-0.1c-0.3-0.3-0.8-0.3-1.1,0l-0.5,0.5
				c-0.3,0.3-0.3,0.8,0.1,1.1l0.1,0.1C220.8,783.7,221.2,783.7,221.5,783.4z"/>
		</g>
		<path class="st4" d="M286.8,556.1c-10.5-30.4-178.2,13.1-213.9,29.4c-61,27.8-43.2,128.5,29.1,143.9c57,12.2,76.6,26.3,115.4,57.5
			c0,0,1.9-2.4,2.5-3.2c-36.5-27.4-61.1-43.1-117.8-55.4C31,713,13.2,614.9,72.6,586.4c49.2-23.6,215.6-41.4,217.5-13.7
			C290.2,572.7,289.5,563.9,286.8,556.1z"/>
	</g>
	<g>
		<g>
			<path class="st5" d="M225.9,810l-2.6-1.1c-0.3-0.1-0.6-0.4-0.7-0.7l-0.8-2.4c-0.1-0.4-0.4-0.6-0.8-0.8l-17.6-5.5
				c-0.1,0-0.2-0.1-0.3-0.1c-0.8,0-4.2,0-5.6,1.6c1.1-0.7,4.3-1.5,5.7-1.1l17,5.6c0.3,0.1,0.6,0.4,0.7,0.7l0.9,2.3
				c0.1,0.3,0.4,0.6,0.8,0.7L225.9,810z"/>
			<path class="st5" d="M220.3,806.4c0,0-6,4.1-3.9,11.7C216.4,818.1,212.5,810.2,220.3,806.4z"/>
			<path class="st5" d="M226.8,811.1c-0.3-0.5-1-0.7-1.5-0.5c-0.9,0.4-2.3,1.5-3.1,4c-1.2,3.4-0.1,5.8,0.7,6.3c0,0-1.9-3.2,0.5-7.3
				c1.6-2.6,3.1-2.6,3.2-0.8c0.1,2-0.6,5.5-2.8,7.8C225.7,819.7,228.6,814,226.8,811.1z"/>
			<path class="st5" d="M222.3,821l-4.6-1.4c-0.2-0.1-0.5-0.1-0.7,0l-1.2,0.4c-0.3,0.1-0.6,0.1-0.9-0.1l-17.3-9.1
				c-0.2-0.1-0.3-0.2-0.4-0.4l-1.5-2.2l1.9,2.3c0.1,0.1,0.2,0.2,0.4,0.3l16.8,8.5c0.3,0.2,0.7,0.2,1,0l1.1-0.4c0.3-0.1,0.7-0.1,1,0
				L222.3,821z"/>
			<path class="st5" d="M194.9,806.1c0-1.3,0.3-3.1,1.9-4.7c0.6-0.6,0.3-1.7-0.6-2l0,0c-0.3-0.1-0.6,0-0.9,0.1
				c-1,0.5-3.2,2.2-3.1,6.5c0,0.4,0.3,0.8,0.7,1l0.3,0.2C194,807.5,194.9,806.9,194.9,806.1z"/>
			<path class="st5" d="M214.5,816.5c-0.1-0.5-0.1-1.2-0.1-1.9c0-0.5-0.3-0.9-0.7-1.1l-13.1-5.4c-0.7-0.3-1.4,0.1-1.6,0.8l-0.2,0.6
				c-0.2,0.5,0.1,1.1,0.6,1.4c2.2,1.2,8.2,4.4,13.5,6.8C213.7,818,214.6,817.4,214.5,816.5z"/>
			<path class="st5" d="M222.2,809.7l-0.2-0.1c-0.4-0.1-0.8,0-1.1,0.2c-0.5,0.4-1.3,1.3-1.9,2.8c-0.3,0.7,0.2,1.5,0.9,1.6l0.5,0.1
				c0.7,0.1,1.3-0.2,1.4-0.8c0.2-0.6,0.5-1.3,1-2C223.4,810.9,223,809.9,222.2,809.7z"/>
			<path class="st5" d="M198.1,801.4c0,0-3.1,1.9-2.3,6.1c0,0.3,0.2,0.5,0.4,0.7l0.5,0.4c0,0-0.9-4.5,2.3-6.8L198.1,801.4z"/>
			
				<ellipse transform="matrix(0.2427 -0.9701 0.9701 0.2427 -618.9517 835.2555)" class="st5" cx="225.5" cy="814.1" rx="1.2" ry="0.6"/>
			
				<ellipse transform="matrix(0.2426 -0.9701 0.9701 0.2426 -621.0543 834.4897)" class="st5" cx="223.9" cy="815" rx="1.2" ry="0.6"/>
			<path class="st5" d="M224.6,817.8c-0.3-0.1-0.4-0.6-0.2-1.2c0.2-0.5,0.6-0.9,0.9-0.8c0.3,0.1,0.4,0.6,0.2,1.2
				C225.2,817.5,224.9,817.9,224.6,817.8z"/>
			
				<ellipse transform="matrix(0.2019 -0.9794 0.9794 0.2019 -622.7963 871.203)" class="st5" cx="223.2" cy="817.8" rx="1" ry="0.5"/>
			<path class="st5" d="M223.6,819.9c-0.2-0.1-0.2-0.4-0.1-0.8c0.1-0.4,0.4-0.6,0.6-0.5c0.2,0.1,0.2,0.4,0.1,0.8
				C224.1,819.7,223.8,819.9,223.6,819.9z"/>
		</g>
		<path class="st5" d="M287.8,578.2c-18.5-56.9-216.9,16.1-246.5,49.9c-37.1,42.5-1.9,112.5,68.9,119.7
			c66.3,6.7,28.8,36.5,82.3,57.7c0.6,0.2,1.2,0,1.5-0.5c1-1.7,2.8-5.2,0.9-4.8c-54.9-19.5-18.1-48.6-85.9-53.8
			C46.7,741.7-0.3,673,44.3,626c26.1-27.5,206.3-97.7,230.1-71.8C283.5,564.1,287.8,578.2,287.8,578.2z"/>
	</g>
	<g>
		<g>
			<path class="st6" d="M281.3,753.4l16.4-4.4l2.4,1.7l0.4,1.8l-1.6,2.6l-16.2,3.8L281.3,753.4z M295.3,750.9
				c-0.9,0.4-1.3,1.6-0.9,2.6c0.4,1,1.5,1.4,2.4,1c0.9-0.4,1.3-1.6,0.9-2.5C297.3,750.9,296.2,750.4,295.3,750.9z"/>
			<path class="st6" d="M288.9,745.1l16.4-4.4l2.4,1.7l0.4,1.8l-1.6,2.6l-16.2,3.8L288.9,745.1z M302.9,742.6
				c-0.9,0.4-1.3,1.6-0.9,2.6c0.4,1,1.5,1.4,2.4,1c0.9-0.4,1.3-1.6,0.9-2.6C304.9,742.5,303.8,742.1,302.9,742.6z"/>
			<path class="st6" d="M288.1,742.8c-0.2-0.6-4.7-11.5-7.5-9.1c-4,3.5-0.3,13.8,0.4,14.8l-2.6,2.4l1.2,3.5l1.2-1l-0.9-2.6l2.1-2.1
				c-0.6-0.9-3.9-10.1-0.7-13.1c2.3-2,6.3,7.7,6.5,8.3l2.7-2.6l1.1,3.2l1.1-0.9l-1.3-3.8L288.1,742.8z"/>
			<polygon class="st6" points="306.4,735.8 305.6,737.6 283.5,743.4 282.7,741.3 283.2,739.5 304.8,733.4 			"/>
			<polygon class="st6" points="283.7,743.7 305.8,737.8 283.9,744.5 			"/>
			<polygon class="st6" points="282.6,762.3 289.5,757.7 282.9,764.1 			"/>
			<path class="st6" d="M279.6,748.6l-22.1,4.3c0,0-2.1-2.1-1.1-6.1l21.4-5.5C277.8,741.2,278.2,745.7,279.6,748.6z"/>
			<path class="st6" d="M280.4,733.1l-22.8,5.9c0,0-1.5,2.5-1.2,3l21.7-5.6C278.1,736.4,278.7,734.3,280.4,733.1z"/>
			<path class="st6" d="M257.5,752.8c0,0-2.8-4.2-1.2-10.8c0,0-3.7,5.2-2.3,11L257.5,752.8z"/>
			<path class="st6" d="M245.5,757.6l9.2-1l23.4-3.4l4.1,11.2L257,766l-10.2-1.3L245.5,757.6z M255.9,758l1.8,6.3l21.5-2l-2.6-7.7
				L255.9,758z"/>
			<polygon class="st6" points="245.9,757.1 252.9,749.4 252.8,751.7 248.1,756.5 			"/>
			<path class="st6" d="M243.3,753.3c-1.5,2.5-1.9,6.2-1.9,6.2c-1-1.9,0-4.6,0.6-6l-2.2,0.5c-1.6,2.5-1.9,6.2-1.9,6.2
				c-1-1.9,0-4.6,0.6-6l-2.1,0.4c-2,2.4-2.4,6.9-2.4,6.9c-1.2-2.2,0.5-5.7,0.9-6.6l-2.6,0.5c0,0-3,5.9,1.1,10.3l12.4-1.3l-1.1-7.9
				l6-4.9L243.3,753.3z"/>
		</g>
		<g>
			<path class="st6" d="M278.5,557.5c-30.7-46.6-242.4,47.1-238.8,106.1c4.6,76.4,107.5,113.9,196.7,101l-2.2-8.6
				c-70,14-184.7-11.5-191.9-90.2c-6-65.9,224.6-161.5,244.5-87.8C286.8,578,284.4,566.4,278.5,557.5z"/>
		</g>
	</g>
	<g>
		<g>
			<radialGradient id="SVGID_3_" cx="85.6932" cy="809.5357" r="5.8606" gradientUnits="userSpaceOnUse">
				<stop  offset="0" style="stop-color:#DA1A5D"/>
				<stop  offset="1" style="stop-color:#922A8E"/>
			</radialGradient>
			<path class="st7" d="M78.2,812.7l1.7-0.6l1.8,1l9.7-4.4c0,0,1.8-1.4,1.8-2.8c-0.2,0.7-1.2,2.2-1.9,2.6l-9.3,4.1l-1.8-0.9
				L78.2,812.7z"/>
			<radialGradient id="SVGID_4_" cx="80.7051" cy="809.0278" r="2.4689" gradientUnits="userSpaceOnUse">
				<stop  offset="0" style="stop-color:#DA1A5D"/>
				<stop  offset="1" style="stop-color:#922A8E"/>
			</radialGradient>
			<path class="st8" d="M81.9,812.1c0,0,0.9-3.9-2.7-6.2C79.1,805.9,83.6,807.7,81.9,812.1z"/>
			<radialGradient id="SVGID_5_" cx="76.7378" cy="809.897" r="2.3011" gradientUnits="userSpaceOnUse">
				<stop  offset="0" style="stop-color:#DA1A5D"/>
				<stop  offset="1" style="stop-color:#922A8E"/>
			</radialGradient>
			<path class="st9" d="M78,812.7c0,0,0.9-1.1,0.1-3.2c-0.7-1.8-2.1-2.4-2.6-2.3c0,0,2,0.6,2.5,3.2c0.3,1.7-0.3,2.2-1,1.5
				c-0.8-0.8-1.8-2.5-1.7-4.2C74.7,808.7,75.8,812.8,78,812.7z"/>
			<radialGradient id="SVGID_6_" cx="83.4582" cy="804.3931" r="5.8055" gradientUnits="userSpaceOnUse">
				<stop  offset="0" style="stop-color:#DA1A5D"/>
				<stop  offset="1" style="stop-color:#922A8E"/>
			</radialGradient>
			<polygon class="st10" points="75.6,806.9 78.2,805.7 78.8,804.7 89.7,801.9 91.3,802.3 89.5,802.1 79.1,804.9 78.5,806 			"/>
			<radialGradient id="SVGID_7_" cx="93.1662" cy="804.2279" r="2.1453" gradientUnits="userSpaceOnUse">
				<stop  offset="0" style="stop-color:#DA1A5D"/>
				<stop  offset="1" style="stop-color:#922A8E"/>
			</radialGradient>
			<path class="st11" d="M91.5,802.2c0,0,2.6,1.3,1.7,4.5l1.3-0.7c0,0,1.2-2-1.3-4.4L91.5,802.2z"/>
			<radialGradient id="SVGID_8_" cx="84.7952" cy="804.7061" r="4.0366" gradientUnits="userSpaceOnUse">
				<stop  offset="0" style="stop-color:#DA1A5D"/>
				<stop  offset="1" style="stop-color:#922A8E"/>
			</radialGradient>
			<path class="st12" d="M79.5,805.2c0,0,0.5,0.1,2.1,1.8l8.5-3l-0.7-1.5C89.3,802.5,83.5,803.8,79.5,805.2z"/>
			<radialGradient id="SVGID_9_" cx="79.3056" cy="810.1738" r="1.4798" gradientUnits="userSpaceOnUse">
				<stop  offset="0" style="stop-color:#DA1A5D"/>
				<stop  offset="1" style="stop-color:#922A8E"/>
			</radialGradient>
			<path class="st13" d="M78.8,812l1.4-0.7c0,0,0.4-1.3-0.5-2.9l-1.4,0.9C78.3,809.3,79.2,810.4,78.8,812z"/>
			<radialGradient id="SVGID_10_" cx="91.8637" cy="804.3367" r="1.4914" gradientUnits="userSpaceOnUse">
				<stop  offset="0" style="stop-color:#DA1A5D"/>
				<stop  offset="1" style="stop-color:#922A8E"/>
			</radialGradient>
			<path class="st14" d="M92.8,806c0,0,0.6-2-1.5-3.5l-0.6,0c0,0,2,1.5,1.6,3.6L92.8,806z"/>
			<radialGradient id="SVGID_11_" cx="76.8965" cy="810.8927" r="0.5196" gradientUnits="userSpaceOnUse">
				<stop  offset="0" style="stop-color:#DA1A5D"/>
				<stop  offset="1" style="stop-color:#922A8E"/>
			</radialGradient>
			<path class="st15" d="M76.6,810.3c0.2-0.1,0.4,0.1,0.6,0.4c0.2,0.3,0.2,0.6,0,0.7c-0.2,0.1-0.4-0.1-0.6-0.4
				C76.4,810.7,76.4,810.4,76.6,810.3z"/>
			<radialGradient id="SVGID_12_" cx="77.2168" cy="809.9254" r="0.5196" gradientUnits="userSpaceOnUse">
				<stop  offset="0" style="stop-color:#DA1A5D"/>
				<stop  offset="1" style="stop-color:#922A8E"/>
			</radialGradient>
			<path class="st16" d="M76.9,809.3c0.2-0.1,0.4,0.1,0.6,0.4c0.2,0.3,0.2,0.6,0,0.7c-0.2,0.1-0.4-0.1-0.6-0.4
				C76.7,809.8,76.7,809.4,76.9,809.3z"/>
			<radialGradient id="SVGID_13_" cx="76.1045" cy="809.5521" r="0.458" gradientUnits="userSpaceOnUse">
				<stop  offset="0" style="stop-color:#DA1A5D"/>
				<stop  offset="1" style="stop-color:#922A8E"/>
			</radialGradient>
			<path class="st17" d="M75.9,809c0.2-0.1,0.4,0.1,0.5,0.4c0.1,0.3,0.1,0.6-0.1,0.6c-0.2,0.1-0.4-0.1-0.5-0.4
				C75.7,809.4,75.7,809.1,75.9,809z"/>
			<radialGradient id="SVGID_14_" cx="76.4822" cy="808.5204" r="0.458" gradientUnits="userSpaceOnUse">
				<stop  offset="0" style="stop-color:#DA1A5D"/>
				<stop  offset="1" style="stop-color:#922A8E"/>
			</radialGradient>
			<path class="st18" d="M76.2,808c0.1-0.1,0.4,0.1,0.5,0.3c0.2,0.3,0.2,0.6,0,0.6c-0.1,0.1-0.4-0.1-0.5-0.3
				C76.1,808.4,76.1,808.1,76.2,808z"/>
			<radialGradient id="SVGID_15_" cx="75.6568" cy="808.1946" r="0.3135" gradientUnits="userSpaceOnUse">
				<stop  offset="0" style="stop-color:#DA1A5D"/>
				<stop  offset="1" style="stop-color:#922A8E"/>
			</radialGradient>
			<path class="st19" d="M75.5,807.8c0.1,0,0.3,0.1,0.3,0.3c0.1,0.2,0,0.4-0.1,0.4c-0.1,0-0.3-0.1-0.3-0.3
				C75.4,808.1,75.4,807.9,75.5,807.8z"/>
		</g>
		<g>
			<radialGradient id="SVGID_16_" cx="154.3574" cy="690.8534" r="124.6654" gradientUnits="userSpaceOnUse">
				<stop  offset="0" style="stop-color:#DA1A5D"/>
				<stop  offset="1" style="stop-color:#922A8E"/>
			</radialGradient>
			<path class="st20" d="M20.9,632.7c-4.7,22.1,7.1,51.3,36,68.4c98.5,58.5,87.1,81.6,35.3,101.6l2.6,2.1
				c26.6-12.5,89.9-32.1-37.4-104.4C26,682.7,16.3,650.4,22.2,630c8.6-29.6,39-47.3,74.8-43.5c52,5.5,191.5-14,191.7-8.8
				c0.2-4.9-139.7,13.9-191.6,8.4C56.8,581.7,27,604,20.9,632.7z"/>
		</g>
	</g>
	<g>
		<g>
			<path class="st21" d="M14.5,631.8c-0.1,1.2,1.2,1.2,1.8,0.2c20.8-68.4,269.2-125.7,273-55.7C285.7,506,37,563,14.5,631.8z"/>
		</g>
		<g>
			<path class="st21" d="M14.2,642.4l0.3-1l0.8-0.6l1.1-6c0,0,0-1.3-0.5-1.7c0.2,0.3,0.5,1.2,0.4,1.7l-1.1,5.8l-0.8,0.6L14.2,642.4z
				"/>
			<path class="st21" d="M14.9,640.5c0,0-1.1-1.6-3-0.4C12,640,13.9,638.3,14.9,640.5z"/>
			<path class="st21" d="M14.1,642.5c0,0-0.1-0.8-1.1-0.9c-0.9-0.1-1.4,0.4-1.5,0.6c0,0,0.7-0.8,1.8-0.3c0.7,0.3,0.7,0.8,0.3,0.9
				c-0.5,0.2-1.4,0.2-2-0.3C11.8,643.1,13.5,643.6,14.1,642.5z"/>
			<polygon class="st21" points="11.4,642.1 11.7,640.4 11.5,639.8 13.5,633.7 14,633 13.5,633.8 11.6,639.8 11.9,640.4 			"/>
			<path class="st21" d="M14,632.9c0,0,1.2-0.9,2.1,0.4l0.1-0.9c0,0-0.4-1.2-1.9-0.6L14,632.9z"/>
			<path class="st21" d="M11.8,639.6c0,0,0.1-0.2,1.2-0.5l1.3-5l-0.7-0.1C13.6,634,12.4,637.3,11.8,639.6z"/>
			<path class="st21" d="M14.1,641.9l0.1-0.9c0,0-0.3-0.6-1.2-0.6l-0.1,1C12.9,641.4,13.6,641.3,14.1,641.9z"/>
			<path class="st21" d="M15.8,633.3c0,0-0.5-0.9-1.6-0.3l-0.1,0.3c0,0,1.1-0.6,1.7,0.2L15.8,633.3z"/>
			<path class="st21" d="M12.9,642.6c0-0.1,0.2-0.2,0.3-0.2c0.2,0,0.3,0.1,0.3,0.2c0,0.1-0.2,0.2-0.3,0.2
				C13,642.8,12.8,642.7,12.9,642.6z"/>
			<path class="st21" d="M12.6,642.1c0-0.1,0.2-0.2,0.3-0.2c0.2,0,0.3,0.1,0.3,0.2c0,0.1-0.2,0.2-0.3,0.2
				C12.7,642.3,12.6,642.2,12.6,642.1z"/>
			
				<ellipse transform="matrix(0.1882 -0.9821 0.9821 0.1882 -620.9936 533.8969)" class="st21" cx="12.5" cy="642.6" rx="0.2" ry="0.3"/>
			<path class="st21" d="M11.9,642.1c0-0.1,0.1-0.2,0.3-0.2c0.1,0,0.2,0.1,0.2,0.2c0,0.1-0.1,0.2-0.3,0.2
				C12,642.3,11.9,642.2,11.9,642.1z"/>
			
				<ellipse transform="matrix(0.2194 -0.9756 0.9756 0.2194 -617.5215 513.0392)" class="st21" cx="11.9" cy="642.4" rx="0.1" ry="0.2"/>
		</g>
	</g>
	<g>
		<g>
			<path class="st22" d="M286.2,577.6"/>
		</g>
	</g>
</g>
<polygon class="st23" points="705.1,516.3 135.1,516.3 15,206.7 585,206.7 "/>
<g>
	<g>
		
			<radialGradient id="SVGID_17_" cx="100.4994" cy="615.8936" r="113.605" gradientTransform="matrix(1.1005 0 0 0.4588 314.3067 145.222)" gradientUnits="userSpaceOnUse">
			<stop  offset="0" style="stop-color:#818181"/>
			<stop  offset="1" style="stop-color:#CCCBCA;stop-opacity:0"/>
		</radialGradient>
		<ellipse class="st24" cx="424.9" cy="427.8" rx="127.9" ry="59.8"/>
	</g>
	
		<radialGradient id="SVGID_18_" cx="336.4647" cy="304.4533" r="255.9965" gradientTransform="matrix(0.7839 0 0 0.7424 75.2648 112.9344)" gradientUnits="userSpaceOnUse">
		<stop  offset="1.075270e-02" style="stop-color:#01A79D"/>
		<stop  offset="1" style="stop-color:#29AAE1"/>
	</radialGradient>
	<path class="st25" d="M566.4,361.8c-11.6-14.7-30.4-16.8-40.6-16.8c-2.3,0-4.3,0.1-5.9,0.2c0.9-6.3,0.6-21.4-16.9-36.4
		c-7.9-6.8-17.7-10.2-29.1-10.2c-10.6,0-19.6,2.9-23.5,4.5c-3.4-6.4-16.5-25.1-50.5-25.1c-1,0-2,0-3,0c-41.1,1.3-50.2,32.4-52,41.3
		c-3.3-0.6-6.4-0.9-9.3-0.9c-21,0-27.9,15.4-29.8,21c-1.2-0.1-2.4-0.2-3.6-0.2c-12.1,0-24.2,7.3-31.5,19.2
		c-8.7,14-9.1,30.5-1.1,44.3c10.9,18.8,29.8,22.7,43.8,22.7c7.3,0,13.4-1.1,16.7-1.8c1.2,6.4,6.4,22.6,29.4,26.4
		c2.6,0.4,5.2,0.6,7.7,0.6c17.1,0,28.5-9.7,33.6-15.2c2.3,5.9,9.5,15.8,31.7,21c-3,11.4-9.8,26.5-25.6,34.5c0,0,63.4,0,92.1-57.3
		c0.2-0.3,0.3-0.6,0.4-0.9c4.6,1.3,9,1.9,13.1,1.9c16.4,0,24.2-9.9,26.4-13.5c11.7-0.3,22.8-8,29.3-20.2
		C575.3,387.2,574.7,372.2,566.4,361.8z"/>
	
		<radialGradient id="SVGID_19_" cx="346.0825" cy="312.7012" r="224.1957" gradientTransform="matrix(0.814 0 0 0.7009 65.7269 128.4477)" gradientUnits="userSpaceOnUse">
		<stop  offset="0" style="stop-color:#FFFFFF"/>
		<stop  offset="0.3308" style="stop-color:#F9F9F9"/>
		<stop  offset="0.6109" style="stop-color:#EEEEED"/>
		<stop  offset="0.8718" style="stop-color:#DDDEDE"/>
		<stop  offset="1" style="stop-color:#D2D3D4"/>
	</radialGradient>
	<path class="st26" d="M550.7,363.6c-10.4-11.9-27.2-13.7-36.3-13.7c-2.1,0-3.9,0.1-5.2,0.2c0.8-5.2,0.5-17.4-15.1-29.6
		c-7-5.5-15.8-8.3-26-8.3c-9.4,0-17.5,2.4-21,3.6c-3.1-5.2-14.7-20.4-45.1-20.4c-0.9,0-1.7,0-2.6,0c-36.7,1-44.9,26.3-46.5,33.6
		c-2.9-0.5-5.7-0.7-8.4-0.7c-18.7,0-25,12.5-26.6,17.1c-1.1-0.1-2.2-0.2-3.2-0.2c-10.8,0-21.6,6-28.2,15.6c-7.8,11.4-8.2,24.8-1,36
		c9.8,15.3,26.7,18.5,39.1,18.5c6.5,0,12-0.9,14.9-1.5c1.1,5.2,5.7,18.4,26.2,21.5c2.3,0.3,4.6,0.5,6.9,0.5
		c15.3,0,25.5-7.9,30.1-12.4c2.1,4.8,16.9,22.5,46.6,25.7c-2.6,9.2-6.3,19.6-19.3,28.5c0,0,34.9-9.1,60.5-55.7
		c0.1-0.2,0.3-0.5,0.4-0.7c4.1,1,8,1.6,11.7,1.6c14.7,0,21.6-8.1,23.6-11c10.4-0.2,20.4-6.5,26.2-16.4
		C558.7,384.3,558.1,372.1,550.7,363.6z"/>
	<g class="st27">
		<path class="st28" d="M550.7,363.6c-10.4-11.9-27.2-13.7-36.3-13.7c-2.1,0-3.9,0.1-5.2,0.2c0.8-5.2,0.5-17.4-15.1-29.6
			c-7-5.5-15.8-8.3-26-8.3c-9.4,0-17.5,2.4-21,3.6c-3.1-5.2-14.7-20.4-45.1-20.4c-0.9,0-1.7,0-2.6,0c-36.7,1-44.9,26.3-46.5,33.6
			c-2.9-0.5-5.7-0.7-8.4-0.7c-18.7,0-25,12.5-26.6,17.1c-1.1-0.1-2.2-0.2-3.2-0.2c-10.8,0-21.6,6-28.2,15.6c-7.8,11.4-8.2,24.8-1,36
			c9.8,15.3,26.7,18.5,39.1,18.5c6.5,0,12-0.9,14.9-1.5c1.1,5.2,5.7,18.4,26.2,21.5c2.3,0.3,4.6,0.5,6.9,0.5
			c15.3,0,25.5-7.9,30.1-12.4c2,4.7,15.9,21.4,43.6,25.3c0.4-1.2,0.7-2.3,1-3.5c-27.9-3-41.8-19.6-43.7-24.1
			c-4.3,4.2-13.8,11.6-28.2,11.6c-2.1,0-4.3-0.2-6.4-0.5c-19.2-2.9-23.6-15.2-24.6-20.1c-2.7,0.5-7.9,1.4-14,1.4
			c-11.7,0-27.6-3-36.7-17.3c-6.7-10.5-6.4-23.1,1-33.8c6.2-9,16.3-14.6,26.5-14.6c1,0,2,0.1,3,0.2c1.6-4.3,7.4-16,25-16
			c2.5,0,5.1,0.2,7.8,0.7c1.5-6.8,9.1-30.6,43.6-31.5c0.8,0,1.7,0,2.5,0c28.5,0,39.5,14.3,42.4,19.1c3.3-1.2,10.9-3.4,19.7-3.4
			c9.6,0,17.8,2.6,24.4,7.8c14.7,11.4,14.9,22.9,14.2,27.7c1.3-0.1,3-0.2,4.9-0.2c8.5,0,24.3,1.7,34.1,12.9c6.9,8,7.5,19.4,1.4,29.9
			c-5.4,9.3-14.8,15.2-24.6,15.4c-1.9,2.7-8.4,10.3-22.2,10.3c-3.5,0-7.1-0.5-11-1.5c-0.1,0.2-0.2,0.4-0.4,0.7
			c-14.8,26.9-32.9,40.5-44.6,47c-2.7,3.8-6.4,7.5-11.5,10.9c0,0,34.9-9.1,60.5-55.7c0.1-0.2,0.3-0.5,0.4-0.7c4.1,1,8,1.6,11.7,1.6
			c14.7,0,21.6-8.1,23.6-11c10.4-0.2,20.4-6.5,26.2-16.4C558.7,384.3,558.1,372.1,550.7,363.6z"/>
		
			<radialGradient id="SVGID_20_" cx="351.4492" cy="316.1238" r="210.4009" gradientTransform="matrix(0.814 0 0 0.7009 65.7273 128.4477)" gradientUnits="userSpaceOnUse">
			<stop  offset="0" style="stop-color:#FFFFFF"/>
			<stop  offset="0.3308" style="stop-color:#F9F9F9"/>
			<stop  offset="0.6109" style="stop-color:#EEEEED"/>
			<stop  offset="0.8718" style="stop-color:#DDDEDE"/>
			<stop  offset="1" style="stop-color:#D2D3D4"/>
		</radialGradient>
		<path class="st29" d="M446.2,448.8c-2.5,7.7-6.4,16.1-17.1,23.3c0,0,4.8-1.3,12.2-5.3c4.3-5.9,6.2-12,7.8-17.6
			C448.1,449.1,447.1,448.9,446.2,448.8z"/>
		
			<radialGradient id="SVGID_21_" cx="346.083" cy="312.7013" r="224.1959" gradientTransform="matrix(0.814 0 0 0.7009 65.7273 128.4477)" gradientUnits="userSpaceOnUse">
			<stop  offset="0" style="stop-color:#FFFFFF"/>
			<stop  offset="0.3308" style="stop-color:#F9F9F9"/>
			<stop  offset="0.6109" style="stop-color:#EEEEED"/>
			<stop  offset="0.8718" style="stop-color:#DDDEDE"/>
			<stop  offset="1" style="stop-color:#D2D3D4"/>
		</radialGradient>
		<path class="st30" d="M485.9,419.8c0.1-0.2,0.2-0.5,0.4-0.7c3.9,1,7.5,1.5,11,1.5c13.8,0,20.3-7.6,22.2-10.3
			c9.8-0.2,19.1-6.1,24.6-15.4c6.1-10.5,5.5-21.9-1.4-29.9c-9.7-11.2-25.5-12.9-34.1-12.9c-2,0-3.6,0.1-4.9,0.2
			c0.7-4.8,0.5-16.3-14.2-27.7c-6.6-5.2-14.8-7.8-24.4-7.8c-8.9,0-16.4,2.2-19.7,3.4c-2.9-4.9-13.8-19.1-42.4-19.1
			c-0.8,0-1.6,0-2.5,0c-34.5,1-42.1,24.7-43.6,31.5c-2.7-0.5-5.4-0.7-7.8-0.7c-17.6,0-23.4,11.7-25,16c-1-0.1-2-0.2-3-0.2
			c-10.1,0-20.3,5.6-26.5,14.6c-7.3,10.7-7.7,23.3-1,33.8c9.2,14.3,25,17.3,36.7,17.3c6.1,0,11.2-0.8,14-1.4
			c1,4.9,5.4,17.2,24.6,20.1c2.2,0.3,4.3,0.5,6.4,0.5c14.4,0,23.9-7.4,28.2-11.6c2,4.5,15.8,21.1,43.7,24.1c-0.3,1.1-0.7,2.3-1,3.5
			c1,0.1,1.9,0.3,2.9,0.4c-1.6,5.6-3.6,11.7-7.8,17.6C453,460.3,471.1,446.7,485.9,419.8z"/>
	</g>
</g>
<g>
	<g>
		<g>
			<g>
				<path class="st31" d="M346.9,661.6c0,0-2.8-2.9-6.3-6.1c-3.5-3.2-3-5.5-3-5.5l-0.9-12.6h-21.6h-1.1h-21.7l-0.9,12.6
					c0,0,0.5,2.3-3,5.5c-3.5,3.1-6.3,6.1-6.3,6.1s-0.4,0.7-0.4,1.7c0,1,0.6,1,3,1c2.2,0,24.2,0,29.3,0c0.7,0,1.1,0,1.1,0
					c5.1,0,27.2,0,29.3,0c2.4,0,3,0,3-1C347.3,662.3,346.9,661.6,346.9,661.6z"/>
				<path class="st28" d="M346.9,661.6c0,0-2.8-2.9-6.3-6.1c-3.5-3.2-3-5.5-3-5.5l-0.9-12.6h-21.6h-1.1h-21.7l-0.9,12.6
					c0,0,0.5,2.3-3,5.5c-3.5,3.1-6.3,6.1-6.3,6.1s-0.4,0.7-0.4,1.7c0,1,0.6,1,3,1c2.2,0,24.2,0,29.3,0c0.7,0,1.1,0,1.1,0
					c5.1,0,27.2,0,29.3,0c2.4,0,3,0,3-1C347.3,662.3,346.9,661.6,346.9,661.6z"/>
			</g>
			<g>
				<path class="st28" d="M422.6,629c0,6-4.9,11-11,11H217.1c-6,0-11-4.9-11-11V508.6c0-6.1,4.9-11,11-11h194.5c6,0,11,4.9,11,11
					V629z"/>
				<path class="st32" d="M422.6,625.7V508.6c0-6.1-4.9-11-11-11H217.1c-6,0-11,4.9-11,11v117.1H422.6z"/>
				<rect x="212.3" y="503.6" class="st6" width="204.1" height="117.1"/>
				<polygon class="st33" points="212.3,503.6 416.4,503.6 416.4,620.7 				"/>
			</g>
		</g>
		<path class="st32" d="M318,632.7c0,2-1.6,3.6-3.6,3.6l0,0c-2,0-3.6-1.6-3.6-3.6l0,0c0-2,1.6-3.6,3.6-3.6l0,0
			C316.4,629.1,318,630.7,318,632.7L318,632.7z"/>
	</g>
	<g>
		<g>
			<g>
				<path class="st31" d="M516,657.2c0,4.2-3.4,3.2-7.6,3.2H374c-4.2,0-7.6,0.9-7.6-3.2V574c0-4.2,3.4-7.6,7.6-7.6h134.4
					c4.2,0,7.6,3.4,7.6,7.6V657.2z"/>
				<path class="st32" d="M516,654.9V574c0-4.2-3.4-7.6-7.6-7.6H374c-4.2,0-7.6,3.4-7.6,7.6v80.9H516z"/>
				<rect x="370.7" y="570.6" class="st34" width="141.1" height="81"/>
				<polygon class="st35" points="370.7,570.6 511.7,570.6 511.7,651.5 				"/>
			</g>
			<g>
				<path class="st28" d="M533.5,660.6c0,0-3.1,3.8-18.8,3.8h-75.8v-5.7l94.4-0.6L533.5,660.6z"/>
				<path class="st28" d="M349.5,660.6c0,0,3.1,3.8,18.8,3.8h75.8v-5.7l-94.4-0.6L349.5,660.6z"/>
				<path class="st28" d="M535.8,657.8c0,1.5-1.5,2.7-3.3,2.7H351.2c-1.8,0-3.3-1.2-3.3-2.7l0,0c0-1.5,1.5-2.7,3.3-2.7h181.3
					C534.3,655,535.8,656.3,535.8,657.8L535.8,657.8z"/>
			</g>
		</g>
		<linearGradient id="SVGID_22_" gradientUnits="userSpaceOnUse" x1="441.896" y1="659.4986" x2="441.896" y2="652.2736">
			<stop  offset="0" style="stop-color:#595A5C"/>
			<stop  offset="1" style="stop-color:#F2F2F2;stop-opacity:0"/>
		</linearGradient>
		<path class="st36" d="M425.7,655c0,0,1.5,3.4,3.4,3.4h25.6c1.9,0,3.4-1.5,3.4-3.4l0,0"/>
	</g>
	<g>
		<g>
			<g>
				<g>
					<path class="st28" d="M147.6,585.7c-1.2,0-2.2-1.2-2.2-2.8v-48.9c0-1.5,1-2.8,2.2-2.8h24.3c1.2,0,2.2,1.2,2.2,2.8V583
						c0,1.5-1,2.8-2.2,2.8H147.6z"/>
				</g>
			</g>
			<g>
				<g>
					<path class="st32" d="M145.4,579.2v-45.1c0-1.5,1-2.8,2.2-2.8h24.3c1.2,0,2.2,1.2,2.2,2.8v45.1H145.4z"/>
				</g>
			</g>
			<rect x="146.6" y="533.5" class="st37" width="26.1" height="44"/>
			<polygon class="st38" points="172.7,577.5 172.7,533.5 146.6,533.5 			"/>
		</g>
		<circle class="st32" cx="159.8" cy="582.2" r="2"/>
	</g>
	<g>
		<g>
			<g>
				<path class="st28" d="M244.6,658.8c0,3.1-2.5,5.6-5.6,5.6h-98.8c-3.1,0-5.6-2.5-5.6-5.6v-61.2c0-3.1,2.5-5.6,5.6-5.6h98.8
					c3.1,0,5.6,2.5,5.6,5.6V658.8z"/>
			</g>
			<circle class="st32" cx="236.9" cy="628.2" r="3.2"/>
		</g>
		<g>
			<g>
				<path class="st32" d="M231.3,664.4h-91.1c-3.1,0-5.6-2.5-5.6-5.6v-61.2c0-3.1,2.5-5.6,5.6-5.6h91.1V664.4z"/>
			</g>
			<circle class="st32" cx="236.9" cy="628.2" r="3.2"/>
		</g>
		<rect x="139.2" y="595.7" class="st37" width="88.8" height="65.6"/>
		<polygon class="st38" points="228,661.2 228,595.7 139.2,595.7 		"/>
	</g>
</g>
<g>
	<g>
		
			<radialGradient id="SVGID_23_" cx="-574.9476" cy="621.3991" r="63.9917" gradientTransform="matrix(-1.4039 0 0 0.618 -697.4827 84.3607)" gradientUnits="userSpaceOnUse">
			<stop  offset="0" style="stop-color:#818181"/>
			<stop  offset="1" style="stop-color:#CCCBCA;stop-opacity:0"/>
		</radialGradient>
		<ellipse class="st39" cx="109.7" cy="468.4" rx="91.9" ry="45.4"/>
	</g>
	
		<radialGradient id="SVGID_24_" cx="-566.5253" cy="400.9815" r="144.1973" gradientTransform="matrix(-1 0 0 1 -392.5293 0)" gradientUnits="userSpaceOnUse">
		<stop  offset="0" style="stop-color:#FBB042"/>
		<stop  offset="1" style="stop-color:#F15B2B"/>
	</radialGradient>
	<path class="st40" d="M10.6,418.3c8.3-11.1,21.9-12.8,29.2-12.8c1.7,0,3.1,0.1,4.2,0.2c-0.6-4.8-0.4-16.2,12.1-27.6
		c5.7-5.1,12.7-7.7,20.9-7.7c7.6,0,14.1,2.2,16.9,3.4c2.5-4.8,11.8-19,36.3-19c0.7,0,1.4,0,2.1,0c29.5,1,36.1,24.5,37.4,31.3
		c2.3-0.5,4.6-0.7,6.7-0.7c15.1,0,20.1,11.7,21.4,15.9c0.9-0.1,1.7-0.2,2.6-0.2c8.7,0,17.4,5.6,22.7,14.5
		c6.3,10.6,6.6,23.2,0.8,33.6c-7.8,14.2-21.4,17.2-31.5,17.2c-5.2,0-9.6-0.8-12-1.4c-0.8,4.9-4.6,17.2-21.1,20
		c-1.9,0.3-3.7,0.5-5.5,0.5c-12.3,0-20.5-7.3-24.2-11.5c-1.7,4.5-6.8,12-22.8,15.9c2.1,8.6,7,20.1,18.4,26.2c0,0-45.5,0-66.2-43.5
		c-0.1-0.2-0.2-0.4-0.3-0.7c-3.3,1-6.5,1.5-9.4,1.5c-11.8,0-17.4-7.5-19-10.2c-8.4-0.2-16.4-6-21-15.3
		C4.2,437.6,4.7,426.2,10.6,418.3z"/>
	
		<radialGradient id="SVGID_25_" cx="-525.5406" cy="409.5247" r="126.2842" gradientTransform="matrix(-1.0384 0 0 0.9442 -380.3617 20.8974)" gradientUnits="userSpaceOnUse">
		<stop  offset="0" style="stop-color:#FFFFFF"/>
		<stop  offset="0.3308" style="stop-color:#F9F9F9"/>
		<stop  offset="0.6109" style="stop-color:#EEEEED"/>
		<stop  offset="0.8718" style="stop-color:#DDDEDE"/>
		<stop  offset="1" style="stop-color:#D2D3D4"/>
	</radialGradient>
	<path class="st41" d="M19.3,419.7c7.5-9,19.5-10.4,26.1-10.4c1.5,0,2.8,0.1,3.8,0.1c-0.6-3.9-0.4-13.2,10.9-22.4
		c5.1-4.2,11.4-6.3,18.7-6.3c6.8,0,12.6,1.8,15.1,2.8c2.2-3.9,10.6-15.5,32.4-15.5c0.6,0,1.3,0,1.9,0c26.4,0.8,32.3,20,33.4,25.5
		c2.1-0.4,4.1-0.6,6-0.6c13.5,0,17.9,9.5,19.1,12.9c0.8-0.1,1.5-0.1,2.3-0.1c7.8,0,15.5,4.5,20.3,11.8c5.6,8.6,5.9,18.8,0.7,27.3
		c-7,11.6-19.2,14-28.1,14c-4.7,0-8.6-0.7-10.7-1.1c-0.8,4-4.1,13.9-18.9,16.3c-1.7,0.3-3.3,0.4-4.9,0.4c-11,0-18.3-6-21.6-9.4
		c-1.5,3.7-12.1,17.1-33.5,19.5c1.9,7,4.5,14.9,13.9,21.6c0,0-25.1-6.9-43.5-42.3c-0.1-0.2-0.2-0.4-0.3-0.5
		c-2.9,0.8-5.8,1.2-8.4,1.2c-10.6,0-15.5-6.1-17-8.3c-7.5-0.2-14.7-4.9-18.8-12.5C13.6,435.4,14,426.1,19.3,419.7z"/>
	<g class="st27">
		<path class="st28" d="M19.3,419.7c7.5-9,19.5-10.4,26.1-10.4c1.5,0,2.8,0.1,3.8,0.1c-0.6-3.9-0.4-13.2,10.9-22.4
			c5.1-4.2,11.4-6.3,18.7-6.3c6.8,0,12.6,1.8,15.1,2.8c2.2-3.9,10.6-15.5,32.4-15.5c0.6,0,1.3,0,1.9,0c26.4,0.8,32.3,20,33.4,25.5
			c2.1-0.4,4.1-0.6,6-0.6c13.5,0,17.9,9.5,19.1,12.9c0.8-0.1,1.5-0.1,2.3-0.1c7.8,0,15.5,4.5,20.3,11.8c5.6,8.6,5.9,18.8,0.7,27.3
			c-7,11.6-19.2,14-28.1,14c-4.7,0-8.6-0.7-10.7-1.1c-0.8,4-4.1,13.9-18.9,16.3c-1.7,0.3-3.3,0.4-4.9,0.4c-11,0-18.3-6-21.6-9.4
			c-1.4,3.5-11.4,16.2-31.4,19.2c-0.3-0.9-0.5-1.8-0.8-2.6c20-2.3,30-14.9,31.4-18.3c3.1,3.2,9.9,8.8,20.3,8.8
			c1.5,0,3.1-0.1,4.6-0.4c13.8-2.2,17-11.6,17.7-15.3c2,0.4,5.6,1,10,1c8.4,0,19.8-2.3,26.4-13.1c4.8-8,4.6-17.5-0.7-25.6
			c-4.4-6.8-11.7-11.1-19-11.1c-0.7,0-1.5,0-2.2,0.1c-1.1-3.3-5.3-12.2-18-12.2c-1.8,0-3.7,0.2-5.6,0.5c-1.1-5.2-6.6-23.2-31.3-23.9
			c-0.6,0-1.2,0-1.8,0c-20.5,0-28.4,10.8-30.4,14.5c-2.4-0.9-7.8-2.6-14.2-2.6c-6.9,0-12.8,2-17.5,5.9
			c-10.5,8.7-10.7,17.4-10.2,21.1c-0.9-0.1-2.1-0.1-3.5-0.1c-6.1,0-17.5,1.3-24.5,9.8c-5,6-5.4,14.7-1,22.7
			c3.9,7.1,10.6,11.5,17.6,11.7c1.4,2.1,6,7.8,15.9,7.8c2.5,0,5.1-0.4,7.9-1.1c0.1,0.2,0.2,0.3,0.3,0.5
			c10.7,20.4,23.7,30.7,32.1,35.7c2,2.9,4.6,5.7,8.2,8.3c0,0-25.1-6.9-43.5-42.3c-0.1-0.2-0.2-0.4-0.3-0.5c-2.9,0.8-5.8,1.2-8.4,1.2
			c-10.6,0-15.5-6.1-17-8.3c-7.5-0.2-14.7-4.9-18.8-12.5C13.6,435.4,14,426.1,19.3,419.7z"/>
		
			<radialGradient id="SVGID_26_" cx="-522.5205" cy="411.4575" r="118.5108" gradientTransform="matrix(-1.0384 0 0 0.9442 -380.3617 20.8974)" gradientUnits="userSpaceOnUse">
			<stop  offset="0" style="stop-color:#FFFFFF"/>
			<stop  offset="0.3308" style="stop-color:#F9F9F9"/>
			<stop  offset="0.6109" style="stop-color:#EEEEED"/>
			<stop  offset="0.8718" style="stop-color:#DDDEDE"/>
			<stop  offset="1" style="stop-color:#D2D3D4"/>
		</radialGradient>
		<path class="st42" d="M94.4,484.3c1.8,5.9,4.6,12.2,12.3,17.7c0,0-3.5-1-8.7-4c-3.1-4.5-4.5-9.1-5.6-13.4
			C93,484.5,93.7,484.4,94.4,484.3z"/>
		
			<radialGradient id="SVGID_27_" cx="-525.5406" cy="409.524" r="126.2846" gradientTransform="matrix(-1.0384 0 0 0.9442 -380.3617 20.8974)" gradientUnits="userSpaceOnUse">
			<stop  offset="0" style="stop-color:#FFFFFF"/>
			<stop  offset="0.3308" style="stop-color:#F9F9F9"/>
			<stop  offset="0.6109" style="stop-color:#EEEEED"/>
			<stop  offset="0.8718" style="stop-color:#DDDEDE"/>
			<stop  offset="1" style="stop-color:#D2D3D4"/>
		</radialGradient>
		<path class="st43" d="M65.9,462.3c-0.1-0.2-0.2-0.3-0.3-0.5c-2.8,0.7-5.4,1.1-7.9,1.1c-9.9,0-14.6-5.7-15.9-7.8
			c-7-0.2-13.8-4.6-17.6-11.7c-4.4-7.9-4-16.6,1-22.7c7-8.5,18.3-9.8,24.5-9.8c1.4,0,2.6,0.1,3.5,0.1c-0.5-3.7-0.3-12.4,10.2-21.1
			c4.8-3.9,10.7-5.9,17.5-5.9c6.4,0,11.8,1.7,14.2,2.6c2.1-3.7,9.9-14.5,30.4-14.5c0.6,0,1.2,0,1.8,0c24.8,0.7,30.3,18.7,31.3,23.9
			c2-0.4,3.9-0.5,5.6-0.5c12.6,0,16.8,8.9,18,12.2c0.7-0.1,1.5-0.1,2.2-0.1c7.3,0,14.6,4.3,19,11.1c5.3,8.1,5.5,17.7,0.7,25.6
			c-6.6,10.9-18,13.1-26.4,13.1c-4.4,0-8.1-0.6-10-1c-0.7,3.7-3.9,13.1-17.7,15.3c-1.6,0.2-3.1,0.4-4.6,0.4
			c-10.3,0-17.2-5.6-20.3-8.8c-1.4,3.4-11.4,16-31.4,18.3c0.2,0.9,0.5,1.7,0.8,2.6c-0.7,0.1-1.4,0.2-2.1,0.3
			c1.2,4.3,2.6,8.9,5.6,13.4C89.5,493.1,76.5,482.7,65.9,462.3z"/>
	</g>
</g>
<g>
	<g>
		
			<radialGradient id="SVGID_28_" cx="161.3828" cy="677.4607" r="63.9917" gradientTransform="matrix(-1.6829 0.1749 -6.526341e-02 -0.6279 755.0681 1116.0032)" gradientUnits="userSpaceOnUse">
			<stop  offset="0" style="stop-color:#818181"/>
			<stop  offset="1" style="stop-color:#CCCBCA;stop-opacity:0"/>
		</radialGradient>
		<path class="st44" d="M329.1,730.3c-2.6-25.5,44.5-51.2,105.4-57.6c60.8-6.3,112.3,9.2,115,34.7c2.6,25.5-44.5,51.2-105.4,57.6
			C383.2,771.3,331.7,755.7,329.1,730.3z"/>
	</g>
	
		<radialGradient id="SVGID_29_" cx="469.7947" cy="851.7725" r="144.1973" gradientTransform="matrix(-1.1987 0.1246 -0.1056 -1.0161 1173.4824 1586.5668)" gradientUnits="userSpaceOnUse">
		<stop  offset="0" style="stop-color:#DA1A5D"/>
		<stop  offset="1" style="stop-color:#922A8E"/>
	</radialGradient>
	<path class="st45" d="M322.7,782.4c11.2,10.3,27.6,10.3,36.3,9.4c2-0.2,3.7-0.5,5-0.7c-0.2,5,1.2,16.5,17.5,26.5
		c7.3,4.5,16,6.3,25.9,5.2c9.1-0.9,16.6-4,19.9-5.6c3.5,4.6,16.2,17.9,45.5,14.8c0.8-0.1,1.7-0.2,2.5-0.3
		c35.3-4.6,40.7-29.4,41.5-36.5c2.9,0.2,5.6,0.1,8.1-0.1c18.1-1.9,22.8-14.3,24-18.8c1,0,2.1-0.1,3.1-0.2
		c10.4-1.1,20.2-7.8,25.6-17.6c6.4-11.5,5.4-24.3-2.6-34.2c-10.9-13.5-27.5-14.8-39.5-13.6c-6.3,0.7-11.4,2-14.2,2.9
		c-1.5-4.8-7.3-16.9-27.4-17.7c-2.3-0.1-4.5,0-6.7,0.2c-14.8,1.5-23.8,10-27.7,14.7c-2.5-4.4-9.5-11.3-29-13.3
		c1.6-9,6.3-21.3,19.3-28.9c0,0-54.6,5.7-74.7,52.4c-0.1,0.2-0.2,0.5-0.3,0.7c-4.1-0.6-7.9-0.7-11.4-0.3c-14.2,1.5-20,9.8-21.7,12.8
		c-10,1.3-19,8.2-23.6,18.2C313,763.6,314.7,775.1,322.7,782.4z"/>
	
		<radialGradient id="SVGID_30_" cx="469.9656" cy="886.9564" r="126.2841" gradientTransform="matrix(-1.2448 0.1294 -9.971164e-02 -0.9594 1185.8616 1563.8173)" gradientUnits="userSpaceOnUse">
		<stop  offset="0" style="stop-color:#FFFFFF"/>
		<stop  offset="0.3308" style="stop-color:#F9F9F9"/>
		<stop  offset="0.6109" style="stop-color:#EEEEED"/>
		<stop  offset="0.8718" style="stop-color:#DDDEDE"/>
		<stop  offset="1" style="stop-color:#D2D3D4"/>
	</radialGradient>
	<path class="st46" d="M336,779.6c9.9,8.3,24.5,8.1,32.4,7.3c1.8-0.2,3.3-0.4,4.5-0.6c-0.3,4,0.9,13.4,15.4,21.4
		c6.5,3.6,14.3,5,23.1,4.1c8.1-0.8,14.9-3.4,17.8-4.7c3.1,3.7,14.3,14.4,40.5,11.7c0.7-0.1,1.5-0.2,2.3-0.3
		c31.6-4.1,36.6-24.3,37.4-30.1c2.6,0.1,5,0.1,7.3-0.2c16.1-1.7,20.5-11.9,21.6-15.5c0.9,0,1.9-0.1,2.8-0.2c9.3-1,18.1-6.5,23-14.5
		c5.8-9.4,5.1-19.9-2-27.8c-9.6-10.9-24.5-11.8-35.2-10.7c-5.6,0.6-10.2,1.7-12.7,2.5c-1.3-3.9-6.4-13.7-24.3-14.2
		c-2-0.1-4,0-5.9,0.2c-13.2,1.4-21.3,8.3-24.9,12.2c-2.2-3.5-16.3-15.9-42.2-15.7c1.5-7.4,3.8-15.7,14.4-23.7
		c0,0-29.3,10.2-47.7,48.4c-0.1,0.2-0.2,0.4-0.3,0.6c-3.6-0.4-7-0.5-10.2-0.2c-12.7,1.3-18,8.2-19.5,10.6c-9,1.1-17,6.8-21.2,15
		C327.5,764.4,329,773.7,336,779.6z"/>
	<g class="st27">
		<path class="st28" d="M336,779.6c9.9,8.3,24.5,8.1,32.4,7.3c1.8-0.2,3.3-0.4,4.5-0.6c-0.3,4,0.9,13.4,15.4,21.4
			c6.5,3.6,14.3,5,23.1,4.1c8.1-0.8,14.9-3.4,17.8-4.7c3.1,3.7,14.3,14.4,40.5,11.7c0.7-0.1,1.5-0.2,2.3-0.3
			c31.6-4.1,36.6-24.3,37.4-30.1c2.6,0.1,5,0.1,7.3-0.2c16.1-1.7,20.5-11.9,21.6-15.5c0.9,0,1.9-0.1,2.8-0.2c9.3-1,18.1-6.5,23-14.5
			c5.8-9.4,5.1-19.9-2-27.8c-9.6-10.9-24.5-11.8-35.2-10.7c-5.6,0.6-10.2,1.7-12.7,2.5c-1.3-3.9-6.4-13.7-24.3-14.2
			c-2-0.1-4,0-5.9,0.2c-13.2,1.4-21.3,8.3-24.9,12.2c-2.1-3.4-15.4-15-39.6-15.6c-0.2,0.9-0.4,1.9-0.6,2.8
			c24.3-0.2,37.5,11.4,39.6,14.7c3.4-3.6,11-10.2,23.4-11.5c1.8-0.2,3.7-0.3,5.6-0.2c16.8,0.5,21.6,9.6,22.8,13.3
			c2.3-0.7,6.7-1.8,11.9-2.3c10.1-1,24-0.1,33,10.1c6.6,7.5,7.3,17.2,1.9,26.1c-4.6,7.5-12.9,12.7-21.6,13.6
			c-0.9,0.1-1.7,0.1-2.6,0.1c-1,3.5-5.1,13-20.2,14.6c-2.1,0.2-4.4,0.3-6.8,0.2c-0.7,5.4-5.4,24.4-35.1,28.2
			c-0.7,0.1-1.4,0.2-2.1,0.2c-24.6,2.6-35.1-7.5-38-11c-2.8,1.2-9.1,3.6-16.7,4.4c-8.3,0.9-15.5-0.4-21.7-3.8
			c-13.6-7.5-14.7-16.3-14.4-20.1c-1.1,0.2-2.5,0.4-4.2,0.6c-7.4,0.8-21.1,0.9-30.4-6.9c-6.6-5.5-8-14.3-3.6-22.9
			c3.9-7.7,11.5-13,19.9-14.1c1.4-2.3,6.4-8.7,18.3-9.9c3-0.3,6.2-0.3,9.6,0.1c0.1-0.2,0.2-0.4,0.3-0.6
			c10.6-22.1,25.1-34.2,34.7-40.2c2-3.1,4.9-6.3,9-9.5c0,0-29.3,10.2-47.7,48.4c-0.1,0.2-0.2,0.4-0.3,0.6c-3.6-0.4-7-0.5-10.2-0.2
			c-12.7,1.3-18,8.2-19.5,10.6c-9,1.1-17,6.8-21.2,15C327.5,764.4,329,773.7,336,779.6z"/>
		
			<radialGradient id="SVGID_31_" cx="472.9854" cy="888.8886" r="118.5113" gradientTransform="matrix(-1.2448 0.1294 -9.971164e-02 -0.9594 1185.861 1563.8174)" gradientUnits="userSpaceOnUse">
			<stop  offset="0" style="stop-color:#FFFFFF"/>
			<stop  offset="0.3308" style="stop-color:#F9F9F9"/>
			<stop  offset="0.6109" style="stop-color:#EEEEED"/>
			<stop  offset="0.8718" style="stop-color:#DDDEDE"/>
			<stop  offset="1" style="stop-color:#D2D3D4"/>
		</radialGradient>
		<path class="st47" d="M419.3,704.5c1.5-6.2,4.3-13,12.9-19.5c0,0-4.1,1.4-10.1,5.2c-3.2,4.9-4.4,9.8-5.4,14.3
			C417.6,704.5,418.4,704.5,419.3,704.5z"/>
		
			<radialGradient id="SVGID_32_" cx="469.9653" cy="886.9557" r="126.2846" gradientTransform="matrix(-1.2448 0.1294 -9.971164e-02 -0.9594 1185.861 1563.8174)" gradientUnits="userSpaceOnUse">
			<stop  offset="0" style="stop-color:#FFFFFF"/>
			<stop  offset="0.3308" style="stop-color:#F9F9F9"/>
			<stop  offset="0.6109" style="stop-color:#EEEEED"/>
			<stop  offset="0.8718" style="stop-color:#DDDEDE"/>
			<stop  offset="1" style="stop-color:#D2D3D4"/>
		</radialGradient>
		<path class="st48" d="M387.4,730.5c-0.1,0.2-0.2,0.4-0.3,0.6c-3.4-0.4-6.6-0.5-9.6-0.1c-11.9,1.2-16.9,7.7-18.3,9.9
			c-8.4,1-16,6.4-19.9,14.1c-4.4,8.6-3,17.4,3.6,22.9c9.3,7.8,23,7.6,30.4,6.9c1.7-0.2,3.1-0.4,4.2-0.6c-0.2,3.8,0.9,12.6,14.4,20.1
			c6.1,3.4,13.4,4.7,21.7,3.8c7.6-0.8,14-3.2,16.7-4.4c2.9,3.5,13.4,13.5,38,11c0.7-0.1,1.4-0.2,2.1-0.2
			c29.6-3.8,34.3-22.8,35.1-28.2c2.4,0.1,4.7,0.1,6.8-0.2c15.1-1.6,19.2-11.1,20.2-14.6c0.9,0,1.8-0.1,2.6-0.1
			c8.7-0.9,17-6.1,21.6-13.6c5.4-8.9,4.7-18.6-1.9-26.1c-9-10.2-22.9-11.1-33-10.1c-5.3,0.5-9.6,1.6-11.9,2.3
			c-1.2-3.7-6-12.8-22.8-13.3c-1.9-0.1-3.8,0-5.6,0.2c-12.4,1.3-20,7.8-23.4,11.5c-2-3.3-15.3-14.9-39.6-14.7
			c0.2-0.9,0.4-1.8,0.6-2.8c-0.8,0-1.7,0-2.6,0c0.9-4.5,2.2-9.3,5.4-14.3C412.5,696.3,398,708.4,387.4,730.5z"/>
	</g>
</g>
<text transform="matrix(1 0 0 1 82.3122 108.8801)"><tspan x="0" y="0" class="st49 st50 st51">Are you a Techonological Genius?</tspan><tspan x="448.5" y="0" class="st49 st52 st51"> </tspan><tspan x="40.8" y="21.6" class="st38 st52 st53">(Or do you just enjoy working with technology?)</tspan><tspan x="78.3" y="69.6" class="st6 st52 st53">Join Technology Student Association!</tspan><tspan x="367.5" y="69.6" class="st52 st53"> </tspan><tspan x="372.5" y="69.6" class="st52 st54"> </tspan><tspan x="56.4" y="98.4" class="st3 st55 st56">Tuesdays in January and Febuary</tspan><tspan x="112" y="127.2" class="st3 st55 st56">after school in rm 221</tspan></text>
<text transform="matrix(1 0 0 1 24.7909 301.0897)"><tspan x="0" y="0" class="st52 st57">Prepare for competitions </tspan><tspan x="5.7" y="20.4" class="st52 st57">and show off your skills</tspan></text>
<text transform="matrix(1 0 0 1 320.2773 367)"><tspan x="0" y="0" class="st52 st57">Web, Graphic Design, &amp;</tspan><tspan x="30.2" y="20.4" class="st52 st57">Problem-Solving</tspan><tspan x="42" y="40.8" class="st52 st57">Competitions</tspan></text>
<text transform="matrix(0.9995 3.196000e-02 -3.196000e-02 0.9995 375.3211 749.7018)"><tspan x="0" y="0" class="st52 st57">Tech Bowl- show</tspan><tspan x="-9.9" y="20.4" class="st52 st57">off your knowledge!</tspan></text>
<text transform="matrix(0.9995 3.196000e-02 -3.196000e-02 0.9995 61.5443 419.4079)"><tspan x="0" y="0" class="st52 st57">Game design</tspan><tspan x="2.8" y="20.4" class="st52 st57">Competition</tspan></text>
<polygon class="st23" points="443,367 487,367 487,367 443,367 "/>
</svg>
