<?xml version="1.0" encoding="utf-8"?>
<!-- Generator: Adobe Illustrator 21.0.0, SVG Export Plug-In . SVG Version: 6.00 Build 0)  -->
<svg version="1.1" id="Layer_1" xmlns="http://www.w3.org/2000/svg" xmlns:xlink="http://www.w3.org/1999/xlink" x="0px" y="0px"
	 viewBox="0 0 230.4 144" style="enable-background:new 0 0 230.4 144;" xml:space="preserve">
<style type="text/css">
	.st0{fill:url(#SVGID_1_);}
	.st1{fill:#DAD7C6;stroke:#C8EAF5;stroke-miterlimit:10;}
	.st2{fill:none;stroke:#010101;stroke-width:2;stroke-miterlimit:10;}
	.st3{fill:#231F20;stroke:#010101;stroke-miterlimit:10;}
	.st4{fill:none;stroke:#010101;stroke-miterlimit:10;}
	.st5{fill:#C8EAF5;}
	.st6{font-family:'MarkerFelt-Thin';}
	.st7{font-size:11.3301px;}
</style>
<g>
	
		<linearGradient id="SVGID_1_" gradientUnits="userSpaceOnUse" x1="61.0325" y1="74.0349" x2="194.8894" y2="74.0349" gradientTransform="matrix(0.9539 4.100000e-03 -4.100000e-03 -0.9996 -0.9739 145.4806)">
		<stop  offset="0" style="stop-color:#517383;stop-opacity:0.56"/>
		<stop  offset="0.2659" style="stop-color:#517383"/>
		<stop  offset="0.6667" style="stop-color:#355D65"/>
		<stop  offset="1" style="stop-color:#7995A4;stop-opacity:0.56"/>
	</linearGradient>
	<polygon class="st0" points="157.9,127.1 94.1,132.8 57,77.8 83.7,16.9 147.5,11.2 184.6,66.2 	"/>
	<path class="st1" d="M147.8,44.6c-4.4-3-9.5-8.6-9.5-8.6c-4.7-5.7-8.3-6.1-11.6-7.4c-2-0.8-4.1-1.6-6.3-1.6c-2.3-0.1-4.6-0.5-6.8,0
		c-1.7,0.4-3.4,1.4-5,2.1c-2.8,1.2-6,3.4-7.7,5.9c-1.7,2.5-7.4,10.5-7.4,10.5c-3.5,3.5-8.2,10.9-8.2,10.9C80.4,63.7,88,71,91,71.9
		c2.3,0.7,4.7,1.8,6.7,4.3c2,2.5,2.1,2.5,2.1,2.5c3.6-1.6,2.6-7.3,2.6-7.3c-0.1-3.5,1.6-6.2,1.6-6.2l0.5,7.9c1.3,8.6,0,11,0,11
		c-3.6,7.5-6.7,17.2-6.7,17.2l44.9-3.5c-1.4-6.9-4.4-9.9-4.4-9.9c-3.8-5.8-3-16.4-3-16.4c-1.4-9.1,1.9-15.3,1.9-15.3
		c-1.2,8.5,4,20.4,4,20.4s-1.2-3.3,1.1-6.8c2.3-3.5,3.6-4,3.6-4c7.3-3.9,7.7-10,7.7-10C155.2,50.3,147.8,44.6,147.8,44.6z
		 M99.6,54.2l3.1,8.5C99.6,59.9,99.6,54.2,99.6,54.2z"/>
	<path class="st2" d="M53.1,33"/>
	<path class="st3" d="M120.8,44.1c0.9-0.7,0.5-1.8-0.4-1.6c-0.9,0.1-1.3-0.3-1.2,0.7s3,2,4,1.4c1.9-1.1,0.6-4.6-1.9-4.3h-4.9
		c0,0-1.7-0.2-2.9,0.9c-1,0.9-1,2.3-0.1,3.2c0.9,0.9,3.6,0.7,3.7-0.6c0.1-1.3-0.3-1.4-1.6-1.2c-1.3,0.2-0.7,1.8,0.5,2.2"/>
	<path class="st4" d="M109.8,38.7c0,0-3.7-0.5-5.5,1.6"/>
	<path class="st4" d="M125.2,36.5c0,0,4.1-1,7,0"/>
	<path class="st4" d="M107.1,59.5c0,0,3.2,2.3,4.8,1c1.6-1.4,2.8-5.8,7.3-7.3c0,0,3.6,0,5.7,3.9c1.8,3.4,4.7,2.3,7.4-0.3"/>
	<text transform="matrix(0.9129 -8.647876e-02 9.430413e-02 0.9955 102.7629 112.9265)" class="st5 st6 st7">Happy Pup</text>
	<text transform="matrix(0.9129 -8.647876e-02 9.430413e-02 0.9955 104.0462 126.4733)" class="st5 st6 st7">Playcare </text>
</g>
</svg>
