<?xml version="1.0" encoding="utf-8"?>
<!-- Generator: Adobe Illustrator 21.0.0, SVG Export Plug-In . SVG Version: 6.00 Build 0)  -->
<svg version="1.1" id="Layer_1" xmlns="http://www.w3.org/2000/svg" xmlns:xlink="http://www.w3.org/1999/xlink" x="0px" y="0px"
	 viewBox="0 0 359.4 312.1" style="enable-background:new 0 0 359.4 312.1;" xml:space="preserve">
<style type="text/css">
	.st0{fill:none;stroke:#000000;stroke-miterlimit:10;}
	.st1{fill:url(#SVGID_1_);}
	.st2{fill:#DAD7C5;stroke:#C8EAF5;stroke-miterlimit:10;}
	.st3{fill:none;stroke:#000000;stroke-width:2;stroke-miterlimit:10;}
	.st4{fill:#231F20;stroke:#000000;stroke-miterlimit:10;}
	.st5{fill:#C8EAF5;}
	.st6{font-family:'MarkerFelt-Thin';}
	.st7{font-size:29.0627px;}
</style>
<path class="st0" d="M0,234.6"/>
<g>
	
		<linearGradient id="SVGID_1_" gradientUnits="userSpaceOnUse" x1="37.4186" y1="154.938" x2="380.774" y2="154.938" gradientTransform="matrix(0.9539 4.100000e-03 -4.100000e-03 -0.9996 -3.1217 310.0687)">
		<stop  offset="0" style="stop-color:#507282;stop-opacity:0.56"/>
		<stop  offset="0.2659" style="stop-color:#507282"/>
		<stop  offset="0.6667" style="stop-color:#335C64"/>
		<stop  offset="1" style="stop-color:#7895A4;stop-opacity:0.56"/>
	</linearGradient>
	<polygon class="st1" points="290.9,297.4 127.2,312.1 32,170.8 100.5,14.7 264.2,0 359.4,141.3 	"/>
	<path class="st2" d="M265,85.8c-11.3-7.7-24.3-22-24.3-22c-12-14.7-21.3-15.7-29.7-19c-5.2-2-10.5-4-16.1-4.2
		c-5.8-0.2-11.8-1.2-17.4,0c-4.3,0.9-8.6,3.7-12.7,5.4c-7.2,3-15.3,8.6-19.8,15.1c-4.3,6.3-19,27-19,27c-9,9-21,28-21,28
		c-13,18.7,6.7,37.3,14.3,39.7c5.9,1.8,12.1,4.7,17.3,11s5.3,6.3,5.3,6.3c9.3-4,6.7-18.7,6.7-18.7c-0.3-9,4-16,4-16l1.3,20.3
		c3.3,22,0,28.3,0,28.3c-9.3,19.3-17.3,44-17.3,44l115.3-9c-3.7-17.7-11.3-25.3-11.3-25.3c-9.7-15-7.7-42-7.7-42
		c-3.7-23.3,5-39.3,5-39.3c-3.2,21.7,10.2,52.4,10.2,52.4s-3.2-8.4,2.8-17.5c6-9.1,9.3-10.2,9.3-10.2c18.7-10,19.7-25.7,19.7-25.7
		C284,100.4,265,85.8,265,85.8z M141.3,110.4l8,21.7C141.3,125.1,141.3,110.4,141.3,110.4z"/>
	<path class="st3" d="M22,56.1"/>
	<path class="st4" d="M195.7,84.6c2.2-1.7,1.2-4.5-1.1-4.2s-3.3-0.7-3,1.8s7.7,5.1,10.3,3.6c5-2.8,1.6-11.8-5-11.1h-12.5
		c0,0-4.3-0.5-7.5,2.4c-2.5,2.2-2.5,5.8-0.2,8.2s9.2,1.8,9.5-1.5s-0.7-3.6-4-3c-3.3,0.6-1.8,4.5,1.3,5.6"/>
	<path class="st0" d="M167.5,70.6c0,0-9.5-1.3-14,4.1"/>
	<path class="st0" d="M207,65.1c0,0,10.5-2.5,18,0"/>
	<path class="st0" d="M160.5,124.1c0,0,8.2,6,12.4,2.5c4.1-3.5,7.2-14.9,18.7-18.7c0,0,9.2,0,14.5,9.9c4.6,8.7,12,5.8,19-0.7"/>
	<text transform="matrix(0.9129 -8.647876e-02 9.430411e-02 0.9955 149.4706 261.0331)" class="st5 st6 st7">Happy Pup</text>
	<text transform="matrix(0.9129 -8.647876e-02 9.430411e-02 0.9955 152.7616 295.776)" class="st5 st6 st7">Playcare </text>
</g>
</svg>
